# xmcd CD database file
#
# Track frame offsets:
#	150
#	22461
#	42392
#	65047
#	84572
#	101845
#	118925
#	137606
#	160263
#	180108
#
# Disc length: 2701 seconds
#
# Revision: 0
# Processed by: cddbd v1.5PL3 Copyright (c) Steve Scherf et al.
# Submitted via: CDex 1.51
#
DISCID=8c0a8b0a
DTITLE=Various Artist - Duetos Tropicales
DYEAR=2001
DGENRE=Salsa
TTITLE0=Que Locura Enamorarme De Ti - Eddie Santiago/Huey Dunbar  
TTITLE1=Quimica Perfecta - Luis Enrique/Yuri  
TTITLE2=El Cuerpo Me Pide - Elvis Crespo/Victor Manuelle  
TTITLE3=Pideme - Milly Quezada/Fernando Villalona  
TTITLE4=La Persona Equivocada - Melina Leon/Victor Manuelle  
TTITLE5=Para Darte Mi Vida - Milly Quezada/Elvis Crespo  
TTITLE6=Come Baby Come - Gizelle D'Cole/Elvis Crespo  
TTITLE7=Lluvia - Eddie Santiago/Charlie Zaa  
TTITLE8=Dejala - Tito Rojas/Tito Gomez  
TTITLE9=Pidele A Una Estrella - Melina Leon/D.L.G.  
EXTD=YEAR: 2001
EXTT0=
EXTT1=
EXTT2=
EXTT3=
EXTT4=
EXTT5=
EXTT6=
EXTT7=
EXTT8=
EXTT9=
PLAYORDER=
